<svg xmlns="http://www.w3.org/2000/svg" width="171.625" height="31.719" viewBox="0 0 171.625 31.719"><g transform="translate(423.664 -85.081)"><g transform="translate(2.079 42.144)"><path d="M-290.662,73.853a8.606,8.606,0,0,1-2.309-1.212c-1.688-1.305.3-2.955,1.492-1.9,1.921,1.8,5.1,1.278,5.711-.939.351-1.265.364-2.909.023-3.119a3.31,3.31,0,0,0-1.521.27,4.551,4.551,0,0,1-5.636-2.01c-1.411-2.765.358-10.727,2.812-12.657,1.468-1.155,3.969-.456,5.139,1.437a7.814,7.814,0,0,0,1.757,1.931c1.415,1.008,1.117,1.514.861,3.113a67,67,0,0,0-.355,7.269c-.02,5.122-.027,5.189-.711,6.222a4.836,4.836,0,0,1-1.654,1.563,6.441,6.441,0,0,1-5.61.031Zm3.584-9.682a6.523,6.523,0,0,0,1.194-2.477c1.135-4.192-1.059-8.851-3-6.379-1.193,1.517-1.848,7.772-.949,9.057.611.872,1.84.782,2.759-.2ZM-358.795,67.8a15.9,15.9,0,0,1-2.313-2.309c-2.632-3.142-4.308-4.8-4.766-4.705-.381.076-.442.491-.442,2.992,0,2.743-.031,2.908-.552,2.983-1.283.183-1.3-.021-1.241-12.072.063-11.95.031-11.674,1.327-11.683l.593,0-.171,6.845c-.094,3.764-.095,7.044,0,7.287.257.669.84.254,4.286-3.049,3.061-2.934,3.616-3.232,4.2-2.259.252.422.074.679-1.29,1.852-3.151,2.711-4.9,4.563-4.9,5.191,0,.828,2.53,4.072,5.064,6.492a14.359,14.359,0,0,1,2.08,2.24c0,.139-.225.373-.5.52-.383.205-.7.13-1.372-.321Zm-45.758-.944c-4.4-2.324-2.908-14.083,1.933-15.229,1.008-.239,2.755.57,3.8,1.759,3.222,3.67,2.37,12.018-1.388,13.588a5.919,5.919,0,0,1-4.343-.118Zm4.343-1.642c1.242-1.091,1.847-2.968,1.828-5.676a16.333,16.333,0,0,0-.337-3.291c-.38-1.386-1.8-2.927-2.7-2.925-2.5,0-4.527,4.5-3.933,8.7.262,1.85.6,2.6,1.55,3.4a2.637,2.637,0,0,0,3.587-.209Zm23.285,1.854c-1.151-.428-1.553-1.928-1.558-5.81,0-1.965.092-4.941.211-6.615.149-2.107.414-4.9.223-4.708-.151.15-1.033,3.814-1.612,5.777-1.166,3.951-2.361,7.025-3.174,8.167a2.319,2.319,0,0,1-2.854,1.055c-1.778-.945-2.945-3.763-4.726-11.41-.642-2.756-1.247-5.141-1.344-5.3-.966-1.564-1.139,13.431-.2,17.351.175.73.157.744-.848.661-1.69-.139-1.721-.384-1.535-11.988.089-5.529.185-10.334.41-10.517,1.469-1.2,3.623-.711,3.662,1.387.024,2.426,1.187,7.5,2.953,12.885,1.039,3.168,1.794,4.578,2.452,4.578.463,0,1.326-1,1.947-2.249a69.245,69.245,0,0,0,2.974-10.319c.52-2.671,1.606-5.972,2.14-6.505.5-.5.641-.583,1.533-.446.5.076,1.384.725,1.036,1.475-.808.975-1.7,19.423-.873,21.392.218.522.4.982.4,1.022,0,.223-.74.294-1.215.117Zm34.895-.3c-.678-.831-.868-2.711-.87-8.578,0-3.36.077-7.924.173-10.142.165-3.806.208-4.054.776-4.426.66-.432,1.685-.66,2.113.71.331,1.06.574.625,1.972-.34a6.858,6.858,0,0,1,8.442.908c4.829,4.837,2.582,17.751-3.943,21.34-2.131,1.172-3.725,1.073-6.227.588a2.017,2.017,0,0,0-1.471.113.9.9,0,0,1-.965-.172Zm6.093-2.355c1.5-.416,2.876-1.826,4.078-4.17a15.764,15.764,0,0,0,1.6-8.628c-.145-3.2-.768-4.878-2.109-5.7-1.552-.946-3.12-.619-4.8,1-2.3,2.213-2.91,4.7-2.778,11.348.075,3.767.164,4.584.567,5.2.761,1.16,1.722,1.424,3.443.946Zm15.261,2.36c-2.952-.543-4.392-3.33-3.83-7.415.374-2.718,1.881-6.1,3.1-6.953,1.324-.927,3.777-.212,5.861,1.709,1.461,1.346,1.889,2.465,1.5,3.915a5.184,5.184,0,0,1-5.769,3.571c-1.814-.294-1.654.047-1.654.5a3.5,3.5,0,0,0,.387,1.258c.689,1.333,1.616,1.393,4.236.276,2.088-.891,2.582-.954,3.05-.39.262.316.262.558,0,1.188-.7,1.685-4.121,2.851-6.88,2.343Zm2.91-8.162c1.2-1.2.33-3.7-1.287-3.7-1.488,0-2.621,2.288-1.773,3.583A2.2,2.2,0,0,0-317.765,58.61Zm8.082,7.546c-2.146-1.021-2.914-1.793-2.519-2.532a1.9,1.9,0,0,1,1.185-.666c.778-.146,1.059-.051,1.812.609,1.559,1.369,4.4,1.685,4.4.49,0-.473-.425-.771-1.855-1.3a6.734,6.734,0,0,1-4.6-6c.033-2.337,1.7-4.857,3.419-5.18,1.867-.35,4.8,1.21,5.762,3.069a4.041,4.041,0,0,1-.081,3.565,2.346,2.346,0,0,1-2.426.108c-.48-.257-.519-.448-.358-1.741.148-1.182.1-1.547-.278-1.96-1.1-1.212-2.5-.244-2.7,1.866-.182,1.9.255,2.394,3.535,4.012,3.058,1.509,3.694,2.137,3.421,3.38-.667,3.037-4.838,4.126-8.724,2.278Zm39.771.52c-.919-.487-.776-3.617-.811-5.083-.085-3.534-.218-4.945-.536-5.674-.465-1.067-1.252-1.631-1.918-1.376-.818.314-2.437,2.347-2.993,4.176-.48,1.579-.366,2.442-.21,4.708.013,2.908-.358,3.385-1.182,3.385-2.5-.486-1.962-4.922-1.839-7.834.1-2.164.075-6.372.781-6.843,1.728-.851,1.985.356,2.034,1.77a4.708,4.708,0,0,1,7.7,1c.79,1.591,1.115,3.437,1.311,7.458.14,2.88.1,3.455-.279,4.035-.5.76-1.032.832-2.055.276Zm7.316-.418c-2.82-1.22-3.47-2.109-2.194-3,.85-.6,1.433-.512,2.536.361,1.226.971,2.917,1.448,3.861,1.089,1.229-.467.808-1.1-1.247-1.866a8.53,8.53,0,0,1-4.642-4.579,4.417,4.417,0,0,1,.91-4.876c.716-.68,1.93-1.783,3.1-1.767,3.636.051,6.463,3.515,5.069,6.212-.664,1.187-1.6.985-2.536.5-.466-.242-.5-.457-.351-1.8.14-1.234.088-1.609-.272-1.969-1.139-1.139-2.475-.124-2.722,2.068-.2,1.755.341,2.37,3.276,3.742,1.892,1.078,4.546,1.908,3.411,4.32-1.57,2.487-4.7,3.087-8.2,1.572Zm-156.074.182c-3.663-1.365-5.172-5.086-4.839-11.931.353-7.25,4.091-12.318,8.391-11.374,1.126.247,2.9,2.1,3.768,3.923,1.843,3.893,1.355,9.277-.767,8.462-.341-.131-.383-.352-.21-1.116.7-3.078-.1-7-1.778-8.708s-4.038-.889-5.642,1.981c-1.508,2.7-2.249,7.578-1.736,11.435.343,2.575.967,3.969,2.181,4.871a5.483,5.483,0,0,0,7.478-.565c.993-1.052,1.575-2.623,1.157-3.127s-2.23-.428-3.936.172c-2.335.822-2.91.658-2.91-.829,0-.659,1.093-1.124,3.631-1.545,3.271-.543,4.835.422,4.835,2.982a5.719,5.719,0,0,1-4.19,5.265,10.579,10.579,0,0,1-5.433.105Zm63.68-.143c-1.462-.664-2.2-2.082-2.387-4.613-.225-2.977.711-7.689,2.249-8.982,3.238-2.723,7.28,1.332,6.588,4.706-.471,2.3-2.569,4.629-4.9,4.284-2.134-.343-2.028-1.012-2.111.63A2.867,2.867,0,0,0-355,64.175c2.762,2.88,6.029-2.039,6.922-1.773,1.18.453-.419,2.762-2.623,3.788a4.6,4.6,0,0,1-4.286.107Zm3.381-6.438a3.224,3.224,0,0,0,1.56-3.048c.007-1.955-.968-3.228-2.473-3.228-1.485,0-3.232,3.631-2.577,5.354a2.483,2.483,0,0,0,2.031,1.525,3.483,3.483,0,0,0,1.459-.6Zm54.3,6.639a2.284,2.284,0,0,1-.9-1.049c-.765-1.847-.751-12.707.017-13.2a3.121,3.121,0,0,1,2.611.459c.562.356.6.511.416,1.5-.116.6-.226,3.577-.244,6.606-.027,4.491-.1,5.553-.416,5.751-.476.3-.757.289-1.488-.064Zm-75.25-.374c-.293-.353-.391-1.8-.453-6.728-.069-5.5-.026-6.331.35-6.707.542-.542.73-.538,1.422.034.52.43.54.577.285,2.051a56.487,56.487,0,0,0-.213,6.615c.061,4.882.047,5.029-.477,5.106a1.123,1.123,0,0,1-.913-.371ZM-297.451,50c-1.3-.706-1.614-1.883-.734-2.763a1.982,1.982,0,0,1,2.79.12,1.53,1.53,0,0,1-.048,2.506c-.818.643-1.045.659-2.008.136Zm-74.818-1.44c-.637-.637-.671-1.143-.113-1.7s1.064-.524,1.7.113c.671.671.678,1.489.017,1.843-.727.389-1,.345-1.6-.255Z" fill="#35416f"/><rect width="28.679" height="4.418" transform="translate(-425.743 70.238)" fill="#f4976c"/></g></g></svg>